<?xml version="1.0"?>
<svg version="1.1" xmlns="http://www.w3.org/2000/svg" width="200px" height="200px"><path fill="#" d="M63.496,97.116l-1.792,0l0,13.02q0,2.1-1.4,3.5t-3.5,1.4t-3.5-1.4q-1.428-1.372-1.428-3.5l0-3.164l-1.736,0l0,3.164q0,2.828,2.016,4.76q1.988,1.904,4.648,1.904q2.912,0,4.816-1.904q1.876-1.876,1.876-4.76l0-13.02z M75.53152,97.2q-3.164,0-5.432,2.268q-2.296,2.296-2.296,5.46l0,4.228q0,3.108,2.296,5.404t5.432,2.296q3.164,0,5.46-2.296q2.268-2.268,2.268-5.404l0-4.228q0-3.192-2.268-5.46t-5.46-2.268z M81.52352,104.928l0,4.228q0,2.548-1.792,4.284q-1.764,1.68-4.2,1.68t-4.172-1.68q-1.792-1.736-1.792-4.284l0-4.228q0-2.352,1.792-4.2q1.792-1.792,4.172-1.792q2.352,0,4.2,1.792q1.792,1.848,1.792,4.2z M101.73504,97.2l-15.176,0l0,1.708l6.888,0l0,17.948l1.736,0l0-17.948l6.552,0l0-1.708z M119.56656,97.2l-15.176,0l0,1.708l6.888,0l0,17.948l1.736,0l0-17.948l6.552,0l0-1.708z M123.17408,116.828l1.764,0l0-19.684l-1.764,0l0,19.684z M130.9536,111.424q0-1.344,0.952-2.436q0.952-1.148,2.296-1.148l0.364,0l5.236,0l0-1.736l-5.236,0l-0.364,0q-1.428-0.28-2.338-1.232t-0.91-2.268q0-1.652,0.966-2.618t2.646-0.966l9.52,0l0-1.764l-9.52,0q-2.156,0-3.752,1.596q-1.596,1.54-1.596,3.752q0,1.4,0.532,2.548t1.568,1.652q-1.036,0.756-1.568,1.988t-0.532,2.632q0,2.184,1.596,3.724q1.624,1.624,3.752,1.624l9.52,0l0-1.848l-9.52,0q-1.68,0-2.646-0.952t-0.966-2.548z"/><path fill="#" d="M60.496,97.116l-1.792,0l0,13.02q0,2.1-1.4,3.5t-3.5,1.4t-3.5-1.4q-1.428-1.372-1.428-3.5l0-3.164l-1.736,0l0,3.164q0,2.828,2.016,4.76q1.988,1.904,4.648,1.904q2.912,0,4.816-1.904q1.876-1.876,1.876-4.76l0-13.02z"/></svg>
